<?xml version="1.0" encoding="UTF-8" standalone="no"?>
<svg
   xmlns:dc="http://purl.org/dc/elements/1.1/"
   xmlns:cc="http://creativecommons.org/ns#"
   xmlns:rdf="http://www.w3.org/1999/02/22-rdf-syntax-ns#"
   xmlns:svg="http://www.w3.org/2000/svg"
   xmlns="http://www.w3.org/2000/svg"
   xmlns:xlink="http://www.w3.org/1999/xlink"
   xmlns:sodipodi="http://sodipodi.sourceforge.net/DTD/sodipodi-0.dtd"
   xmlns:inkscape="http://www.inkscape.org/namespaces/inkscape"
   id="eagle"
   width="403.01596"
   height="301.00647"
   viewBox="0 0 403.01596 301.00647"
   version="1.1"
   inkscape:version="0.91 r13725"
   sodipodi:docname="eagle.svg">
  <metadata
     id="metadata9">
    <rdf:RDF>
      <cc:Work
         rdf:about="">
        <dc:format>image/svg+xml</dc:format>
        <dc:type
           rdf:resource="http://purl.org/dc/dcmitype/StillImage" />
        <dc:title></dc:title>
      </cc:Work>
    </rdf:RDF>
  </metadata>
  <defs
     id="defs7">
    <linearGradient
       inkscape:collect="always"
       id="linearGradient4144">
      <stop
         style="stop-color:#000000;stop-opacity:1;"
         offset="0"
         id="stop4146" />
      <stop
         style="stop-color:#000000;stop-opacity:0;"
         offset="1"
         id="stop4148" />
    </linearGradient>
    <linearGradient
       inkscape:collect="always"
       id="linearGradient4145">
      <stop
         style="stop-color:#ffff00;stop-opacity:1"
         offset="0"
         id="stop4147" />
      <stop
         style="stop-color:#f3f073;stop-opacity:0;"
         offset="1"
         id="stop4149" />
    </linearGradient>
    <linearGradient
       inkscape:collect="always"
       id="linearGradient4137">
      <stop
         style="stop-color:#803300;stop-opacity:1"
         offset="0"
         id="stop4139" />
      <stop
         style="stop-color:#28170b;stop-opacity:1"
         offset="1"
         id="stop4141" />
    </linearGradient>
    <linearGradient
       inkscape:collect="always"
       xlink:href="#linearGradient4137"
       id="linearGradient4143"
       x1="-1.3524186e-09"
       y1="170.82372"
       x2="400"
       y2="170.82372"
       gradientUnits="userSpaceOnUse"
       gradientTransform="translate(2.5015806,-21.322575)" />
    <linearGradient
       inkscape:collect="always"
       xlink:href="#linearGradient4144"
       id="linearGradient4150"
       x1="-1.7562911e-09"
       y1="149.50323"
       x2="401.01599"
       y2="149.50323"
       gradientUnits="userSpaceOnUse"
       gradientTransform="translate(-4.1017081e-8,2)" />
    <radialGradient
       inkscape:collect="always"
       xlink:href="#linearGradient4145"
       id="radialGradient4156"
       cx="198.508"
       cy="151.50323"
       fx="198.508"
       fy="151.50323"
       r="200.508"
       gradientTransform="matrix(1,0,0,0.74562235,4,36.539037)"
       gradientUnits="userSpaceOnUse" />
  </defs>
  <sodipodi:namedview
     pagecolor="#ffffff"
     bordercolor="#666666"
     borderopacity="1"
     objecttolerance="10"
     gridtolerance="10"
     guidetolerance="10"
     inkscape:pageopacity="0"
     inkscape:pageshadow="2"
     inkscape:window-width="1366"
     inkscape:window-height="717"
     id="namedview5"
     showgrid="false"
     fit-margin-top="0"
     fit-margin-left="0"
     fit-margin-right="0"
     fit-margin-bottom="0"
     inkscape:zoom="0.69393633"
     inkscape:cx="-173.2693"
     inkscape:cy="4.6367024"
     inkscape:window-x="0"
     inkscape:window-y="0"
     inkscape:window-maximized="1"
     inkscape:current-layer="eagle" />
  <path
     inkscape:connector-curvature="0"
     id="path4141"
     d="m 92.722366,299.26528 c 4.056499,-1.97451 8.420354,-10.02589 9.291094,-17.14218 0.44204,-3.6126 1.28665,-7.86185 1.87692,-9.44276 2.00041,-5.35764 9.29561,-12.95724 22.51734,-23.45689 7.24773,-5.75558 14.29222,-12.0345 15.65442,-13.95318 1.65274,-2.32791 2.92193,-3.13795 3.81497,-2.43487 0.73603,0.57948 3.95113,0.97242 7.14465,0.87316 4.52458,-0.1406 6.23086,0.33186 7.72912,2.14019 1.65021,1.9917 2.19212,2.09638 3.82338,0.73858 1.43962,-1.1983 2.22673,-1.255 3.24495,-0.23378 1.86771,1.87322 4.39252,1.68313 6.81192,-0.51285 2.17874,-1.97756 4.51941,-1.34999 4.51941,1.21171 0,1.93014 4.01883,3.04623 8.05419,2.23679 2.42902,-0.48724 3.39007,-0.004 4.63894,2.33743 1.93555,3.62725 7.34521,5.6611 12.48517,4.69399 3.08677,-0.58079 3.85369,-1.27877 3.85369,-3.50722 0,-3.61162 2.07407,-3.59827 2.97932,0.0192 1.37421,5.49143 12.01326,12.10456 16.94696,10.53404 2.315,-0.73693 2.3134,-0.76858 -0.17258,-3.4226 -1.38005,-1.47334 -2.03801,-2.97086 -1.46211,-3.32784 1.89414,-1.17408 6.00435,0.6106 6.73681,2.92518 0.39516,1.24871 2.04266,2.77532 3.6611,3.39248 4.1721,1.59089 13.42854,1.61169 16.36269,0.0367 2.43065,-1.30468 2.39241,-1.41551 -1.83347,-5.31433 -3.20436,-2.95636 -3.97995,-4.32296 -3.01152,-5.30633 0.97049,-0.98546 1.95533,-0.26804 3.84767,2.80286 2.61129,4.2376 7.58558,6.50536 14.2994,6.51901 2.62895,0.006 3.19352,-0.50525 3.19352,-2.88813 l 0,-2.89465 3.77416,2.30794 c 4.26849,2.61022 9.01663,2.9987 11.10091,0.90826 1.09815,-1.10138 0.0815,-2.75166 -4.66351,-7.57058 -4.68421,-4.75711 -5.54721,-6.14597 -3.78485,-6.09103 1.29483,0.0404 3.80804,2.18276 5.80676,4.95 5.54461,7.67653 14.5138,9.80525 20.86299,4.95153 1.99499,-1.52509 2.07688,-1.92977 0.58064,-2.86938 -4.57141,-2.87069 -10.45151,-7.64805 -10.45151,-8.49145 0,-0.51769 1.43706,-0.94126 3.19351,-0.94123 2.25174,2e-5 4.14047,1.19034 6.40461,4.0363 4.23935,5.32882 10.71547,7.21091 16.48819,4.79179 5.08043,-2.12899 5.20073,-3.51772 0.42376,-4.89177 -3.57733,-1.029 -6.00658,-3.93636 -3.28901,-3.93636 0.74267,0 4.83618,1.44133 9.09669,3.20293 6.41715,2.65334 9.48001,3.20293 17.8495,3.20293 7.0779,0 10.55518,-0.48053 11.6128,-1.60479 1.27373,-1.354 0.7555,-1.49112 -3.31591,-0.87738 -4.79073,0.72216 -19.28623,-2.7575 -20.64017,-4.9547 -0.67443,-1.09444 11.45317,-2.44237 22.08646,-2.45482 9.78296,-0.0116 23.81983,-3.8354 30.1739,-8.22 2.89995,-2.0011 6.85922,-5.82018 8.79835,-8.48683 4.58561,-6.30601 9.47129,-15.94534 8.55014,-16.86921 -0.39725,-0.39843 -5.78879,4.55749 -11.98119,11.01313 -10.1912,10.62446 -11.96857,11.97433 -18.74237,14.23432 -4.11593,1.37323 -8.81911,2.44991 -10.45152,2.39263 -2.06228,-0.0723 -1.27457,-0.57127 2.58114,-1.63484 3.05204,-0.84188 6.85108,-2.38627 8.44231,-3.43196 6.063,-3.98434 14.90945,-19.2113 14.25107,-24.52971 -0.32209,-2.60196 -1.30413,-1.57697 -7.33952,7.66051 -5.54141,8.48141 -8.15625,11.34964 -12.77408,14.01195 -6.58058,3.79387 -10.04018,4.55827 -4.49051,0.99217 6.42777,-4.13041 12.03882,-14.80668 12.03882,-22.90653 0,-5.54392 -1.92764,-3.80783 -4.10224,3.6946 -3.33323,11.49974 -12.57634,20.5526 -22.68686,22.21993 l -3.9848,0.65712 4.0562,-1.8714 c 5.82388,-2.68698 9.29918,-6.35543 9.29418,-9.81076 -0.005,-2.94191 -0.0497,-2.92536 -2.34799,0.85546 -2.24224,3.68857 -6.33036,6.13503 -13.09892,7.83885 -4.43185,1.1156 -3.98597,-0.91407 1.5159,-6.9005 6.48914,-7.06065 5.7891,-8.63026 -1.4516,-3.2547 -3.35319,2.48945 -7.10295,4.8838 -8.33279,5.3208 -1.22983,0.437 -7.27154,0.18245 -13.42603,-0.56566 -11.33631,-1.37801 -15.50161,-1.01248 -29.37218,2.57753 -5.86849,1.5189 -17.71587,0.33952 -30.44886,-3.03112 -7.78629,-2.06116 -27.64338,-6.10693 -34.83838,-7.0981 -3.19352,-0.43995 -8.28862,-1.77065 -11.32247,-2.95713 -5.36691,-2.09889 -5.51607,-2.09893 -5.51607,-0.002 -4.59768,-0.99939 3.47812,-7.72343 -2.85034,-21.88679 -2.23292,-4.33071 -10.08399,-11.05573 -16.60067,-14.21972 -4.14749,-2.01369 -6.13353,-2.31279 -10.53927,-1.58726 -7.89209,1.29966 -21.09111,0.63087 -24.72283,-1.25272 -1.72655,-0.89546 -8.01849,-7.01156 -13.98209,-13.59131 C 122.17674,132.38204 92.792107,103.47366 85.086928,97.684845 81.574058,95.045655 73.653576,87.945555 67.485874,81.906825 58.52234,73.130763 56.121103,70.073125 55.52074,66.670848 55.107631,64.329783 53.267375,56.911136 51.431281,50.18497 49.595187,43.458803 47.742781,34.679846 47.314798,30.676177 46.069052,19.022165 44.446187,22.259667 44.395658,36.499696 44.354038,48.201518 44.180672,49.291262 42.773453,46.690856 41.906813,45.089388 40.585082,39.714204 39.83628,34.746 38.270978,24.360571 39.7955,16.796758 44.986953,9.190945 49.201737,3.0160478 48.616713,2.4476088 43.352643,7.6029908 37.865376,12.976499 33.900908,21.657174 32.948092,30.384535 31.798928,40.910364 28.535268,37.128647 28.300003,24.998626 28.171203,18.357953 30.371864,11.02285 34.045279,5.8487978 37.48508,1.0037918 34.90744,1.5885878 31.1718,6.5007118 26.607684,12.50223 23.595884,19.865925 23.54685,25.143368 23.5149,28.586221 23.209754,29.346197 22.37785,28.055127 20.663347,25.394302 21.001614,15.684539 22.973735,10.950681 24.989698,6.1115768 24.192149,4.2391858 21.578306,7.6746378 15.218072,16.034087 14.352147,29.414864 19.327096,42.461419 22.887949,51.799566 22.9386,52.101187 20.62196,50.17287 18.017033,48.004602 11.550724,26.074227 11.440942,19.035683 11.388542,15.676457 11.058277,12.924845 10.706995,12.920987 6.9678705,12.879937 6.0765747,26.312963 9.042872,38.001583 10.011768,41.819547 13.360574,50.053474 16.484646,56.2992 19.60872,62.544924 21.82078,67.653103 21.40035,67.650718 19.47298,67.639816 9.1202876,52.981102 5.2312007,44.756373 1.101088,36.021915 0.89710226,35.795615 0.53037036,39.541325 0.04706446,44.477702 5.7035998,55.886882 13.373217,65.445262 c 3.031255,3.777732 5.082901,6.868613 4.55921,6.868613 -0.52368,0 -3.524705,-1.834408 -6.668929,-4.076463 -3.1442145,-2.242055 -6.1103632,-4.076464 -6.5914394,-4.076464 -3.3253554,0 2.2828056,11.363141 8.2803844,16.777557 2.914942,2.63149 3.047579,3.76192 0.715813,6.10055 -2.228197,2.23477 -2.204396,2.44589 0.890061,7.896 1.637756,2.88448 3.877873,4.982385 6.077615,5.691795 4.753245,1.53291 4.872606,1.76464 1.962181,3.8092 -1.398553,0.98248 -2.542821,2.51305 -2.542821,3.40129 0,2.21323 4.53173,5.21495 8.097034,5.36328 2.380407,0.099 2.070142,0.39044 -1.64177,1.54181 -2.51731,0.78081 -4.776844,2.02127 -5.021223,2.75655 -0.665654,2.00285 5.06484,7.22657 7.927643,7.22657 1.953319,0 2.30057,0.44544 1.588863,2.03823 -0.500902,1.12102 -0.948737,3.87264 -0.995207,6.1147 -0.07265,3.50627 0.321619,4.1252 2.818731,4.42476 5.473351,0.65662 6.160782,1.20972 4.087712,3.2889 -1.04019,1.04326 -1.732229,3.24703 -1.537876,4.8973 0.300706,2.55337 1.218561,3.20514 6.159759,4.37403 3.193517,0.75545 4.630596,1.43583 3.193517,1.51192 -5.497133,0.29109 -1.438583,9.456 4.187452,9.456 2.95317,0 3.150458,0.29512 2.712497,4.05768 -0.41702,3.58249 -0.0837,4.20658 2.846063,5.32917 1.825104,0.69931 5.070006,1.06884 7.210875,0.82114 3.200923,-0.37033 3.561988,-0.20794 2.032239,0.91395 -1.023134,0.75032 -1.860258,2.76075 -1.860258,4.46761 0,3.7055 4.436868,5.90686 9.870874,4.89747 2.757926,-0.5123 3.060388,-0.39656 1.451598,0.55549 -4.758736,2.81607 -0.395476,8.6805 5.718176,7.68546 3.117617,-0.50741 3.862378,-0.24354 3.862378,1.3684 0,1.09837 0.844343,3.20606 1.876311,4.68373 1.425541,2.04126 1.552166,3.0129 0.527081,4.04445 -1.882043,1.89388 -22.615652,2.77532 -37.046032,1.57491 -6.598732,-0.54893 -12.270857,-0.72408 -12.604711,-0.38923 -1.155528,1.15893 1.569502,7.16524 3.791085,8.35605 1.226979,0.65766 2.391817,1.96796 2.588547,2.91176 0.196738,0.94379 2.094808,3.33606 4.21797,5.31617 2.123143,1.98011 4.217961,4.73048 4.655132,6.11199 0.43718,1.38149 2.066491,2.83189 3.620674,3.22312 1.55419,0.39124 2.8258,1.34933 2.8258,2.12909 0,2.20124 5.10752,6.48264 7.733498,6.48264 1.296926,0 3.230911,0.96735 4.297736,2.14966 1.817931,2.01471 1.792773,2.33698 -0.40065,5.1337 -1.2872,1.64122 -2.34035,3.4693 -2.34035,4.0624 0,0.59311 -2.010034,3.26208 -4.466735,5.931 -2.978356,3.23567 -5.446177,4.85262 -7.406128,4.85262 -1.616659,0 -3.547383,0.73475 -4.29048,1.63278 -0.743117,0.89802 -2.62661,1.95384 -4.185557,2.34627 -1.558948,0.39243 -3.627808,2.25224 -4.597477,4.13292 -2.432099,4.71701 -2.221248,5.05345 1.087375,1.73508 2.847402,-2.85581 6.901037,-3.77244 8.097378,-1.83103 0.348337,0.56531 -0.456838,2.41785 -1.789272,4.11677 -1.332452,1.69894 -2.646926,5.29831 -2.921063,7.99865 l -0.49843,4.90969 2.985417,-5.93339 c 3.401702,-6.76075 11.017297,-14.94115 11.017297,-11.83438 0,1.04874 -0.463341,2.19399 -1.029637,2.54502 -0.566295,0.35102 -1.394371,2.60945 -1.840173,5.01872 -0.44581,2.40929 -1.631188,5.29771 -2.634189,6.41875 -2.654378,2.96672 0.200297,2.51199 3.655883,-0.58236 2.836866,-2.54031 6.087445,-9.77715 7.312055,-16.27896 0.85434,-4.53598 14.929609,-16.48147 18.244514,-15.48386 1.331178,0.40062 4.392729,1.03386 6.803442,1.40722 2.410705,0.37334 4.662501,1.1322 5.003971,1.68634 0.883088,1.43309 5.658199,1.2464 9.170239,-0.35851 2.23005,-1.01907 3.32415,-1.03026 4.30747,-0.0441 2.43244,2.43963 -10.123244,18.21291 -15.378761,19.31983 -1.562495,0.3291 -5.360827,0.9268 -8.440696,1.32826 -7.148158,0.93172 -10.122166,3.80049 -9.940095,9.58842 0.132924,4.22537 0.161473,4.25383 0.876468,0.87354 0.590329,-2.79085 1.428086,-3.57288 4.162387,-3.88542 1.882815,-0.21523 4.010455,-1.19667 4.728097,-2.18098 0.884904,-1.21376 2.148794,-1.52098 3.927576,-0.95476 2.139913,0.6812 2.488789,1.4044 1.894902,3.92803 -1.138584,4.83816 -6.764776,12.23791 -9.94251,13.07668 -2.572076,0.67893 -2.651814,0.85788 -0.74333,1.66841 3.509858,1.49059 9.680636,-2.27223 12.357951,-7.53568 3.166804,-6.22575 6.233223,-6.42213 5.168283,-0.331 -0.419972,2.40221 -1.619442,5.67793 -2.665488,7.2794 -1.046045,1.60147 -1.903119,3.68307 -1.904606,4.62578 -9.29e-4,0.94271 -1.307926,2.37629 -2.903197,3.18577 -1.595274,0.80945 -2.116632,1.444 -1.158577,1.4101 0.958057,-0.0339 2.826275,-0.58949 4.151602,-1.23459 z M 190.76334,179.96704 c 0,-2.52304 -0.58105,-3.69122 0.98416,-5.26624 4.33119,-4.35834 10.61925,5.48878 9.20188,10.22202 -0.85756,2.86382 -10.18604,-1.42793 -10.18604,-4.95578 z"
     style="fill:#000000;fill-opacity:1;stroke:url(#linearGradient4150);stroke-opacity:1"
     sodipodi:nodetypes="csssssssssssscsssssssccssscscssscsssssssssssssccssssscssssssssscscssssssssssccssscssssssssscsssscssssssssscsssssssssssscsssssssssssssscsssssssscccsssssssssscssscsscsscsssssssscsssssccssssssccsccssss" />
  <ellipse
     style="opacity:1;fill:#f2f2f2;fill-opacity:1;stroke:#000000;stroke-opacity:1"
     id="path4158"
     cx="195.39005"
     cy="179.56053"
     rx="5.6741519"
     ry="6.1244812" />
  <path
     style="fill:url(#linearGradient4143);fill-opacity:1;stroke:url(#radialGradient4156);stroke-opacity:1"
     d="m 94.722366,297.26528 c 4.056499,-1.97451 8.420354,-10.02589 9.291094,-17.14218 0.44204,-3.6126 1.28665,-7.86185 1.87692,-9.44276 2.00041,-5.35764 9.29561,-12.95724 22.51734,-23.45689 7.24773,-5.75558 14.29222,-12.0345 15.65442,-13.95318 1.65274,-2.32791 2.92193,-3.13795 3.81497,-2.43487 0.73603,0.57948 3.95113,0.97242 7.14465,0.87316 4.52458,-0.1406 6.23086,0.33186 7.72912,2.14019 1.65021,1.9917 2.19212,2.09638 3.82338,0.73858 1.43962,-1.1983 2.22673,-1.255 3.24495,-0.23378 1.86771,1.87322 4.39252,1.68313 6.81192,-0.51285 2.17874,-1.97756 4.51941,-1.34999 4.51941,1.21171 0,1.93014 4.01883,3.04623 8.05419,2.23679 2.42902,-0.48724 3.39007,-0.004 4.63894,2.33743 1.93555,3.62725 7.34521,5.6611 12.48517,4.69399 3.08677,-0.58079 3.85369,-1.27877 3.85369,-3.50722 0,-3.61162 2.07407,-3.59827 2.97932,0.0192 1.37421,5.49143 12.01326,12.10456 16.94696,10.53404 2.315,-0.73693 2.3134,-0.76858 -0.17258,-3.4226 -1.38005,-1.47334 -2.03801,-2.97086 -1.46211,-3.32784 1.89414,-1.17408 6.00435,0.6106 6.73681,2.92518 0.39516,1.24871 2.04266,2.77532 3.6611,3.39248 4.1721,1.59089 13.42854,1.61169 16.36269,0.0367 2.43065,-1.30468 2.39241,-1.41551 -1.83347,-5.31433 -3.20436,-2.95636 -3.97995,-4.32296 -3.01152,-5.30633 0.97049,-0.98546 1.95533,-0.26804 3.84767,2.80286 2.61129,4.2376 7.58558,6.50536 14.2994,6.51901 2.62895,0.006 3.19352,-0.50525 3.19352,-2.88813 l 0,-2.89465 3.77416,2.30794 c 4.26849,2.61022 9.01663,2.9987 11.10091,0.90826 1.09815,-1.10138 0.0815,-2.75166 -4.66351,-7.57058 -4.68421,-4.75711 -5.54721,-6.14597 -3.78485,-6.09103 1.29483,0.0404 3.80804,2.18276 5.80676,4.95 5.54461,7.67653 14.5138,9.80525 20.86299,4.95153 1.99499,-1.52509 2.07688,-1.92977 0.58064,-2.86938 -4.57141,-2.87069 -10.45151,-7.64805 -10.45151,-8.49145 0,-0.51769 1.43706,-0.94126 3.19351,-0.94123 2.25174,2e-5 4.14047,1.19034 6.40461,4.0363 4.23935,5.32882 10.71547,7.21091 16.48819,4.79179 5.08043,-2.12899 5.20073,-3.51772 0.42376,-4.89177 -3.57733,-1.029 -6.00658,-3.93636 -3.28901,-3.93636 0.74267,0 4.83618,1.44133 9.09669,3.20293 6.41715,2.65334 9.48001,3.20293 17.8495,3.20293 7.0779,0 10.55518,-0.48053 11.6128,-1.60479 1.27373,-1.354 0.7555,-1.49112 -3.31591,-0.87738 -4.79073,0.72216 -19.28623,-2.7575 -20.64017,-4.9547 -0.67443,-1.09444 11.45317,-2.44237 22.08646,-2.45482 9.78296,-0.0116 23.81983,-3.8354 30.1739,-8.22 2.89995,-2.0011 6.85922,-5.82018 8.79835,-8.48683 4.58561,-6.30601 9.47129,-15.94534 8.55014,-16.86921 -0.39725,-0.39843 -5.78879,4.55749 -11.98119,11.01313 -10.1912,10.62446 -11.96857,11.97433 -18.74237,14.23432 -4.11593,1.37323 -8.81911,2.44991 -10.45152,2.39263 -2.06228,-0.0723 -1.27457,-0.57127 2.58114,-1.63484 3.05204,-0.84188 6.85108,-2.38627 8.44231,-3.43196 6.063,-3.98434 14.90945,-19.2113 14.25107,-24.52971 -0.32209,-2.60196 -1.30413,-1.57697 -7.33952,7.66051 -5.54141,8.48141 -8.15625,11.34964 -12.77408,14.01195 -6.58058,3.79387 -10.04018,4.55827 -4.49051,0.99217 6.42777,-4.13041 12.03882,-14.80668 12.03882,-22.90653 0,-5.54392 -1.92764,-3.80783 -4.10224,3.6946 -3.33323,11.49974 -12.57634,20.5526 -22.68686,22.21993 l -3.9848,0.65712 4.0562,-1.8714 c 5.82388,-2.68698 9.29918,-6.35543 9.29418,-9.81076 -0.005,-2.94191 -0.0497,-2.92536 -2.34799,0.85546 -2.24224,3.68857 -6.33036,6.13503 -13.09892,7.83885 -4.43185,1.1156 -3.98597,-0.91407 1.5159,-6.9005 6.48914,-7.06065 5.7891,-8.63026 -1.4516,-3.2547 -3.35319,2.48945 -7.10295,4.8838 -8.33279,5.3208 -1.22983,0.437 -7.27154,0.18245 -13.42603,-0.56566 -11.33631,-1.37801 -15.50161,-1.01248 -29.37218,2.57753 -5.86849,1.5189 -17.71587,0.33952 -30.44886,-3.03112 -7.78629,-2.06116 -27.64338,-6.10693 -34.83838,-7.0981 -3.19352,-0.43995 -8.28862,-1.77065 -11.32247,-2.95713 -5.36691,-2.09889 -5.51607,-2.09893 -5.51607,-0.002 0,3.42508 -4.48605,8.293 -7.64244,8.293 -2.47118,0 -2.65756,-0.27495 -1.47436,-2.17512 1.91436,-3.07446 0.61748,-5.4921 -4.1678,-7.76956 -2.27403,-1.08227 -4.13459,-2.43218 -4.13459,-2.99977 0,-0.56759 -0.91451,-1.07339 -2.03224,-1.12395 -1.32151,-0.0597 -1.50107,-0.30526 -0.51344,-0.70188 0.83534,-0.33545 2.40306,0.16682 3.48383,1.11621 1.08078,0.94937 3.71672,2.61661 5.85764,3.70497 3.32953,1.69261 3.82056,2.47106 3.39465,5.38162 -0.58584,4.00326 0.26835,4.28277 3.19072,1.04404 2.92325,-3.23968 3.74555,-21.69539 1.18769,-26.65635 -2.23292,-4.33071 -10.08399,-11.05573 -16.60067,-14.21972 -4.14749,-2.01369 -6.13353,-2.31279 -10.53927,-1.58726 -7.89209,1.29966 -21.09111,0.63087 -24.72283,-1.25272 -1.72655,-0.89546 -8.01849,-7.01156 -13.98209,-13.59131 C 124.17674,130.38204 94.792107,101.47366 87.086928,95.684845 83.574058,93.045655 75.653576,85.945555 69.485874,79.906825 60.52234,71.130763 58.121103,68.073125 57.52074,64.670848 57.107631,62.329783 55.267375,54.911136 53.431281,48.18497 51.595187,41.458803 49.742781,32.679846 49.314798,28.676177 48.069052,17.022165 46.446187,20.259667 46.395658,34.499696 46.354038,46.201518 46.180672,47.291262 44.773453,44.690856 43.906813,43.089388 42.585082,37.714204 41.83628,32.746 40.270978,22.360571 41.7955,14.796758 46.986953,7.1909448 51.201737,1.0160478 50.616713,0.44760877 45.352643,5.6029908 39.865376,10.976499 35.900908,19.657174 34.948092,28.384535 33.798928,38.910364 30.535268,35.128647 30.300003,22.998626 30.171203,16.357953 32.371864,9.02285 36.045279,3.8487978 39.48508,-0.99620823 36.90744,-0.41141223 33.1718,4.5007118 28.607684,10.50223 25.595884,17.865925 25.54685,23.143368 25.5149,26.586221 25.209754,27.346197 24.37785,26.055127 22.663347,23.394302 23.001614,13.684539 24.973735,8.950681 26.989698,4.1115768 26.192149,2.2391858 23.578306,5.6746378 17.218072,14.034087 16.352147,27.414864 21.327096,40.461419 24.887949,49.799566 24.9386,50.101187 22.62196,48.17287 20.017033,46.004602 13.550724,24.074227 13.440942,17.035683 13.388542,13.676457 13.058277,10.924845 12.706995,10.920987 8.9678705,10.879937 8.0765747,24.312963 11.042872,36.001583 12.011768,39.819547 15.360574,48.053474 18.484646,54.2992 21.60872,60.544924 23.82078,65.653103 23.40035,65.650718 21.47298,65.639816 11.120288,50.981102 7.2312007,42.756373 3.101088,34.021915 2.8971023,33.795615 2.5303704,37.541325 2.0470645,42.477702 7.7035998,53.886882 15.373217,63.445262 c 3.031255,3.777732 5.082901,6.868613 4.55921,6.868613 -0.52368,0 -3.524705,-1.834408 -6.668929,-4.076463 -3.144215,-2.242055 -6.1103632,-4.076464 -6.5914394,-4.076464 -3.3253554,0 2.2828056,11.363141 8.2803844,16.777557 2.914942,2.63149 3.047579,3.76192 0.715813,6.10055 -2.228197,2.23477 -2.204396,2.44589 0.890061,7.896 1.637756,2.88448 3.877873,4.98239 6.077615,5.691795 4.753245,1.53291 4.872606,1.76464 1.962181,3.8092 -1.398553,0.98248 -2.542821,2.51305 -2.542821,3.40129 0,2.21323 4.53173,5.21495 8.097034,5.36328 2.380407,0.099 2.070142,0.39044 -1.64177,1.54181 -2.51731,0.78081 -4.776844,2.02127 -5.021223,2.75655 -0.665654,2.00285 5.06484,7.22657 7.927643,7.22657 1.953319,0 2.30057,0.44544 1.588863,2.03823 -0.500902,1.12102 -0.948737,3.87264 -0.995207,6.1147 -0.07265,3.50627 0.321619,4.1252 2.818731,4.42476 5.473351,0.65662 6.160782,1.20972 4.087712,3.2889 -1.04019,1.04326 -1.732229,3.24703 -1.537876,4.8973 0.300706,2.55337 1.218561,3.20514 6.159759,4.37403 3.193517,0.75545 4.630596,1.43583 3.193517,1.51192 -5.497133,0.29109 -1.438583,9.456 4.187452,9.456 2.95317,0 3.150458,0.29512 2.712497,4.05768 -0.41702,3.58249 -0.0837,4.20658 2.846063,5.32917 1.825104,0.69931 5.070006,1.06884 7.210875,0.82114 3.200923,-0.37033 3.561988,-0.20794 2.032239,0.91395 -1.023134,0.75032 -1.860258,2.76075 -1.860258,4.46761 0,3.7055 4.436868,5.90686 9.870874,4.89747 2.757926,-0.5123 3.060388,-0.39656 1.451598,0.55549 -4.758736,2.81607 -0.395476,8.6805 5.718176,7.68546 3.117617,-0.50741 3.862378,-0.24354 3.862378,1.3684 0,1.09837 0.844343,3.20606 1.876311,4.68373 1.425541,2.04126 1.552166,3.0129 0.527081,4.04445 -1.882043,1.89388 -22.615652,2.77532 -37.046032,1.57491 -6.598732,-0.54893 -12.270857,-0.72408 -12.604711,-0.38923 -1.155528,1.15893 1.569502,7.16524 3.791085,8.35605 1.226979,0.65766 2.391817,1.96796 2.588547,2.91176 0.196738,0.94379 2.094808,3.33606 4.21797,5.31617 2.123143,1.98011 4.217961,4.73048 4.655132,6.11199 0.43718,1.38149 2.066491,2.83189 3.620674,3.22312 1.55419,0.39124 2.8258,1.34933 2.8258,2.12909 0,2.20124 5.10752,6.48264 7.733498,6.48264 1.296926,0 3.230911,0.96735 4.297736,2.14966 1.817931,2.01471 1.792773,2.33698 -0.40065,5.1337 -1.2872,1.64122 -2.34035,3.4693 -2.34035,4.0624 0,0.59311 -2.010034,3.26208 -4.466735,5.931 -2.978356,3.23567 -5.446177,4.85262 -7.406128,4.85262 -1.616659,0 -3.547383,0.73475 -4.29048,1.63278 -0.743117,0.89802 -2.62661,1.95384 -4.185557,2.34627 -1.558948,0.39243 -3.627808,2.25224 -4.597477,4.13292 -2.432099,4.71701 -2.221248,5.05345 1.087375,1.73508 2.847402,-2.85581 6.901037,-3.77244 8.097378,-1.83103 0.348337,0.56531 -0.456838,2.41785 -1.789272,4.11677 -1.332452,1.69894 -2.646926,5.29831 -2.921063,7.99865 l -0.49843,4.90969 2.985417,-5.93339 c 3.401702,-6.76075 11.017297,-14.94115 11.017297,-11.83438 0,1.04874 -0.463341,2.19399 -1.029637,2.54502 -0.566295,0.35102 -1.394371,2.60945 -1.840173,5.01872 -0.44581,2.40929 -1.631188,5.29771 -2.634189,6.41875 -2.654378,2.96672 0.200297,2.51199 3.655883,-0.58236 2.836866,-2.54031 6.087445,-9.77715 7.312055,-16.27896 0.85434,-4.53598 14.929609,-16.48147 18.244514,-15.48386 1.331178,0.40062 4.392729,1.03386 6.803442,1.40722 2.410705,0.37334 4.662501,1.1322 5.003971,1.68634 0.883088,1.43309 5.658199,1.2464 9.170239,-0.35851 2.23005,-1.01907 3.32415,-1.03026 4.30747,-0.0441 2.43244,2.43963 -10.12324,18.21291 -15.378761,19.31983 -1.562495,0.3291 -5.360827,0.9268 -8.440696,1.32826 -7.148158,0.93172 -10.122166,3.80049 -9.940095,9.58842 0.132924,4.22537 0.161473,4.25383 0.876468,0.87354 0.590329,-2.79085 1.428086,-3.57288 4.162387,-3.88542 1.882815,-0.21523 4.010455,-1.19667 4.728097,-2.18098 0.884904,-1.21376 2.148794,-1.52098 3.927576,-0.95476 2.139913,0.6812 2.488789,1.4044 1.894902,3.92803 -1.138584,4.83816 -6.764776,12.23791 -9.94251,13.07668 -2.572076,0.67893 -2.651814,0.85788 -0.74333,1.66841 3.509858,1.49059 9.680636,-2.27223 12.357951,-7.53568 3.166804,-6.22575 6.233221,-6.42213 5.168283,-0.331 -0.419972,2.40221 -1.619442,5.67793 -2.665488,7.2794 -1.046045,1.60147 -1.903119,3.68307 -1.904606,4.62578 -9.29e-4,0.94271 -1.307926,2.37629 -2.903197,3.18577 -1.595274,0.80945 -2.116632,1.444 -1.158577,1.4101 0.958057,-0.0339 2.826275,-0.58949 4.151602,-1.23459 z M 192.76334,177.96704 c 0,-2.52304 0.30141,-2.74995 2.25788,-1.69981 2.95891,1.58823 3.90716,3.24089 3.08801,5.38187 -1.06826,2.79207 -5.34589,-0.15421 -5.34589,-3.68206 z"
     id="path3"
     inkscape:connector-curvature="0" />
</svg>
